
<svg width="562" height="144" viewBox="0 0 562 144" fill="none" xmlns="http://www.w3.org/2000/svg">
<rect width="562" height="144" rx="46" fill="#3F3F3F"/>
<mask id="path-2-outside-1" maskUnits="userSpaceOnUse" x="78.9519" y="21.496" width="404" height="103" fill="black">
<rect fill="white" x="78.9519" y="21.496" width="404" height="103"/>
<path d="M176.848 90.592C177.68 90.592 178.32 90.976 178.768 91.744C179.28 92.512 179.536 93.568 179.536 94.912C179.536 97.408 178.928 99.392 177.712 100.864C174.64 104.576 171.536 107.456 168.4 109.504C165.264 111.488 161.552 112.48 157.264 112.48C153.104 112.48 149.552 111.36 146.608 109.12C143.728 106.88 140.976 103.04 138.352 97.6C136.24 93.248 134.576 90.048 133.36 88C132.144 85.888 130.928 84.384 129.712 83.488C128.56 82.592 127.12 82.048 125.392 81.856C125.136 83.2 124.4 87.424 123.184 94.528C122.672 97.728 122.352 99.68 122.224 100.384C121.584 104.288 120.304 107.296 118.384 109.408C116.464 111.456 113.552 112.48 109.648 112.48C105.36 112.48 101.552 111.232 98.2239 108.736C94.9599 106.176 92.4319 102.656 90.6399 98.176C88.8479 93.632 87.9519 88.48 87.9519 82.72C87.9519 71.968 89.8079 62.688 93.5199 54.88C97.2959 47.072 102.544 41.12 109.264 37.024C116.048 32.864 123.856 30.784 132.688 30.784C138.832 30.784 143.984 31.712 148.144 33.568C152.304 35.424 155.376 37.984 157.36 41.248C159.408 44.512 160.432 48.192 160.432 52.288C160.432 55.872 159.568 59.392 157.84 62.848C156.176 66.24 153.648 69.248 150.256 71.872C146.864 74.496 142.736 76.448 137.872 77.728C140.944 78.56 143.312 79.904 144.976 81.76C146.64 83.616 148.304 86.336 149.968 89.92C151.76 93.76 153.52 96.576 155.248 98.368C157.04 100.16 159.088 101.056 161.392 101.056C163.44 101.056 165.392 100.384 167.248 99.04C169.104 97.632 171.44 95.264 174.256 91.936C175.024 91.04 175.888 90.592 176.848 90.592ZM112.144 81.76C109.968 81.76 108.464 81.248 107.632 80.224C106.864 79.2 106.48 78.048 106.48 76.768C106.48 75.232 106.96 74.016 107.92 73.12C108.944 72.224 110.096 71.776 111.376 71.776H113.776C114.8 65.504 115.76 60.096 116.656 55.552C117.488 51.392 120.176 49.312 124.72 49.312C128.368 49.312 130.192 50.944 130.192 54.208C130.192 54.912 130.16 55.456 130.096 55.84L127.216 71.776C130.672 71.584 133.808 70.752 136.624 69.28C139.504 67.808 141.776 65.76 143.44 63.136C145.168 60.512 146.032 57.536 146.032 54.208C146.032 50.176 144.656 47.008 141.904 44.704C139.152 42.4 135.12 41.248 129.808 41.248C123.536 41.248 118.032 42.816 113.296 45.952C108.624 49.024 104.976 53.632 102.352 59.776C99.7279 65.856 98.4159 73.28 98.4159 82.048C98.4159 86.144 98.8319 89.664 99.6639 92.608C100.496 95.552 101.52 97.76 102.736 99.232C103.952 100.704 105.104 101.44 106.192 101.44C107.024 101.44 107.696 101.024 108.208 100.192C108.784 99.36 109.232 98.016 109.552 96.16L112.144 81.76Z"/>
<path d="M186.098 112.48C182.322 112.48 179.09 111.552 176.402 109.696C173.778 107.776 171.794 105.28 170.45 102.208C169.106 99.136 168.434 95.84 168.434 92.32C168.434 87.456 169.33 83.136 171.122 79.36C172.978 75.52 175.474 72.544 178.61 70.432C181.746 68.256 185.266 67.168 189.17 67.168C192.946 67.168 196.178 68.128 198.866 70.048C201.554 71.904 203.57 74.368 204.914 77.44C206.258 80.512 206.93 83.808 206.93 87.328C206.93 92.192 206.002 96.544 204.146 100.384C202.29 104.16 199.762 107.136 196.562 109.312C193.426 111.424 189.938 112.48 186.098 112.48ZM187.154 102.112C189.33 102.112 191.154 100.928 192.626 98.56C194.162 96.192 194.93 92.736 194.93 88.192C194.93 84.672 194.29 82.016 193.01 80.224C191.73 78.432 190.194 77.536 188.402 77.536C186.098 77.536 184.178 78.72 182.642 81.088C181.17 83.392 180.434 86.848 180.434 91.456C180.434 95.104 181.074 97.792 182.354 99.52C183.634 101.248 185.234 102.112 187.154 102.112Z"/>
<path d="M230.761 114.592C227.433 114.592 224.873 113.824 223.081 112.288C221.353 110.752 220.489 109.024 220.489 107.104C220.489 105.44 221.097 104 222.313 102.784C223.529 101.568 225.321 100.96 227.689 100.96C228.521 100.96 229.481 101.056 230.569 101.248C231.721 101.376 232.585 101.472 233.161 101.536C233.097 99.872 232.713 98.304 232.009 96.832C231.369 95.36 230.537 93.952 229.513 92.608C228.489 91.2 227.529 89.984 226.633 88.96C224.649 92.736 222.665 95.872 220.681 98.368C218.761 100.864 216.649 103.232 214.345 105.472C213.193 106.624 211.977 107.2 210.697 107.2C209.673 107.2 208.841 106.848 208.201 106.144C207.561 105.376 207.241 104.448 207.241 103.36C207.241 102.08 207.689 100.896 208.585 99.808L209.833 98.272C213.353 93.92 216.009 90.336 217.801 87.52C218.889 85.664 220.169 83.2 221.641 80.128C223.113 76.992 224.553 73.76 225.961 70.432C227.177 67.616 229.705 66.208 233.545 66.208C235.337 66.208 236.585 66.368 237.289 66.688C237.993 67.008 238.345 67.52 238.345 68.224C238.345 68.608 238.217 69.216 237.961 70.048C237.705 70.88 237.353 71.712 236.905 72.544C235.753 74.848 235.177 76.8 235.177 78.4C235.177 79.36 235.497 80.416 236.137 81.568C236.841 82.72 237.897 84.16 239.305 85.888C241.353 88.576 242.889 90.88 243.913 92.8C245.001 94.656 245.545 96.704 245.545 98.944C245.545 99.584 245.481 100.48 245.353 101.632C248.489 100.416 252.169 97.184 256.393 91.936C257.161 91.04 258.025 90.592 258.985 90.592C259.817 90.592 260.457 90.976 260.905 91.744C261.417 92.512 261.673 93.568 261.673 94.912C261.673 97.344 261.065 99.328 259.849 100.864C256.649 104.832 253.577 107.552 250.633 109.024C247.753 110.432 244.169 111.2 239.881 111.328C237.321 113.504 234.281 114.592 230.761 114.592Z"/>
<path d="M288.242 93.472C289.074 93.472 289.714 93.856 290.162 94.624C290.674 95.392 290.93 96.448 290.93 97.792C290.93 100.096 290.386 102.08 289.298 103.744C287.506 106.496 285.138 108.64 282.194 110.176C279.314 111.712 275.858 112.48 271.826 112.48C265.682 112.48 260.914 110.656 257.522 107.008C254.13 103.296 252.434 98.304 252.434 92.032C252.434 87.616 253.362 83.52 255.218 79.744C257.074 75.904 259.634 72.864 262.898 70.624C266.226 68.384 269.97 67.264 274.13 67.264C277.842 67.264 280.818 68.384 283.058 70.624C285.298 72.8 286.418 75.776 286.418 79.552C286.418 83.968 284.818 87.776 281.618 90.976C278.482 94.112 273.106 96.608 265.49 98.464C267.026 101.408 269.618 102.88 273.266 102.88C275.89 102.88 278.034 102.272 279.698 101.056C281.426 99.84 283.41 97.792 285.65 94.912C286.418 93.952 287.282 93.472 288.242 93.472ZM272.498 76.672C270.13 76.672 268.114 78.048 266.45 80.8C264.85 83.552 264.05 86.88 264.05 90.784V90.976C267.826 90.08 270.802 88.736 272.978 86.944C275.154 85.152 276.242 83.072 276.242 80.704C276.242 79.488 275.89 78.528 275.186 77.824C274.546 77.056 273.65 76.672 272.498 76.672Z"/>
<path d="M299.294 88.384C297.758 88.512 296.51 88.064 295.55 87.04C294.654 86.016 294.206 84.576 294.206 82.72C294.206 80.992 294.622 79.712 295.454 78.88C296.35 78.048 297.63 77.568 299.294 77.44L318.974 75.52C320.574 75.392 321.79 75.808 322.622 76.768C323.518 77.664 323.966 79.008 323.966 80.8C323.966 84.256 322.302 86.144 318.974 86.464L299.294 88.384Z"/>
<path d="M364.871 112.48C359.175 112.48 354.023 111.2 349.415 108.64C344.871 106.08 341.255 102.336 338.567 97.408C335.879 92.416 334.535 86.464 334.535 79.552C334.535 69.824 336.295 61.248 339.815 53.824C343.399 46.4 348.231 40.672 354.311 36.64C360.455 32.608 367.239 30.592 374.663 30.592C380.359 30.592 385.479 31.872 390.023 34.432C394.631 36.992 398.279 40.768 400.967 45.76C403.655 50.688 404.999 56.608 404.999 63.52C404.999 73.248 403.207 81.824 399.623 89.248C396.103 96.672 391.271 102.4 385.127 106.432C379.047 110.464 372.295 112.48 364.871 112.48ZM365.831 101.152C370.823 101.152 375.207 99.616 378.983 96.544C382.823 93.472 385.767 89.216 387.815 83.776C389.863 78.272 390.887 72.064 390.887 65.152C390.887 57.536 389.287 51.776 386.087 47.872C382.887 43.904 378.759 41.92 373.703 41.92C368.775 41.92 364.423 43.456 360.647 46.528C356.871 49.536 353.927 53.792 351.815 59.296C349.703 64.736 348.647 70.944 348.647 77.92C348.647 85.536 350.247 91.328 353.447 95.296C356.647 99.2 360.775 101.152 365.831 101.152Z"/>
<path d="M438.158 112.768C429.646 112.768 422.83 111.168 417.71 107.968C412.59 104.704 410.03 99.744 410.03 93.088C410.03 89.568 410.638 86.88 411.854 85.024C413.07 83.168 414.862 82.24 417.23 82.24C418.958 82.24 420.366 82.688 421.454 83.584C422.542 84.48 423.086 85.632 423.086 87.04C423.086 88.32 422.99 89.44 422.798 90.4C422.798 90.656 422.734 91.104 422.606 91.744C422.542 92.384 422.51 93.056 422.51 93.76C422.51 96.64 423.95 98.784 426.83 100.192C429.774 101.6 433.87 102.304 439.118 102.304C444.558 102.304 448.814 101.344 451.886 99.424C454.958 97.44 456.494 94.688 456.494 91.168C456.494 88.992 455.79 87.136 454.382 85.6C452.974 84 451.214 82.688 449.102 81.664C446.99 80.576 444.014 79.264 440.174 77.728C435.246 75.808 431.214 73.984 428.078 72.256C425.006 70.528 422.35 68.192 420.11 65.248C417.934 62.24 416.846 58.528 416.846 54.112C416.846 49.504 418.062 45.408 420.494 41.824C422.99 38.24 426.542 35.456 431.15 33.472C435.822 31.488 441.294 30.496 447.566 30.496C452.238 30.496 456.526 31.2 460.43 32.608C464.334 33.952 467.438 36.032 469.742 38.848C472.11 41.664 473.294 45.12 473.294 49.216C473.294 53.248 472.686 56.288 471.47 58.336C470.254 60.384 468.462 61.408 466.094 61.408C464.43 61.408 463.022 60.896 461.87 59.872C460.782 58.848 460.238 57.632 460.238 56.224C460.238 55.008 460.334 53.888 460.526 52.864C460.718 50.944 460.814 49.728 460.814 49.216C460.814 46.528 459.502 44.48 456.878 43.072C454.254 41.664 450.99 40.96 447.086 40.96C441.582 40.96 437.358 41.984 434.414 44.032C431.534 46.016 430.094 48.832 430.094 52.48C430.094 54.912 430.83 56.992 432.302 58.72C433.838 60.448 435.726 61.888 437.966 63.04C440.206 64.192 443.342 65.568 447.374 67.168C452.238 69.152 456.142 70.944 459.086 72.544C462.03 74.144 464.526 76.32 466.574 79.072C468.686 81.824 469.742 85.216 469.742 89.248C469.742 96.8 466.862 102.624 461.102 106.72C455.406 110.752 447.758 112.768 438.158 112.768Z"/>
</mask>
<path d="M176.848 90.592C177.68 90.592 178.32 90.976 178.768 91.744C179.28 92.512 179.536 93.568 179.536 94.912C179.536 97.408 178.928 99.392 177.712 100.864C174.64 104.576 171.536 107.456 168.4 109.504C165.264 111.488 161.552 112.48 157.264 112.48C153.104 112.48 149.552 111.36 146.608 109.12C143.728 106.88 140.976 103.04 138.352 97.6C136.24 93.248 134.576 90.048 133.36 88C132.144 85.888 130.928 84.384 129.712 83.488C128.56 82.592 127.12 82.048 125.392 81.856C125.136 83.2 124.4 87.424 123.184 94.528C122.672 97.728 122.352 99.68 122.224 100.384C121.584 104.288 120.304 107.296 118.384 109.408C116.464 111.456 113.552 112.48 109.648 112.48C105.36 112.48 101.552 111.232 98.2239 108.736C94.9599 106.176 92.4319 102.656 90.6399 98.176C88.8479 93.632 87.9519 88.48 87.9519 82.72C87.9519 71.968 89.8079 62.688 93.5199 54.88C97.2959 47.072 102.544 41.12 109.264 37.024C116.048 32.864 123.856 30.784 132.688 30.784C138.832 30.784 143.984 31.712 148.144 33.568C152.304 35.424 155.376 37.984 157.36 41.248C159.408 44.512 160.432 48.192 160.432 52.288C160.432 55.872 159.568 59.392 157.84 62.848C156.176 66.24 153.648 69.248 150.256 71.872C146.864 74.496 142.736 76.448 137.872 77.728C140.944 78.56 143.312 79.904 144.976 81.76C146.64 83.616 148.304 86.336 149.968 89.92C151.76 93.76 153.52 96.576 155.248 98.368C157.04 100.16 159.088 101.056 161.392 101.056C163.44 101.056 165.392 100.384 167.248 99.04C169.104 97.632 171.44 95.264 174.256 91.936C175.024 91.04 175.888 90.592 176.848 90.592ZM112.144 81.76C109.968 81.76 108.464 81.248 107.632 80.224C106.864 79.2 106.48 78.048 106.48 76.768C106.48 75.232 106.96 74.016 107.92 73.12C108.944 72.224 110.096 71.776 111.376 71.776H113.776C114.8 65.504 115.76 60.096 116.656 55.552C117.488 51.392 120.176 49.312 124.72 49.312C128.368 49.312 130.192 50.944 130.192 54.208C130.192 54.912 130.16 55.456 130.096 55.84L127.216 71.776C130.672 71.584 133.808 70.752 136.624 69.28C139.504 67.808 141.776 65.76 143.44 63.136C145.168 60.512 146.032 57.536 146.032 54.208C146.032 50.176 144.656 47.008 141.904 44.704C139.152 42.4 135.12 41.248 129.808 41.248C123.536 41.248 118.032 42.816 113.296 45.952C108.624 49.024 104.976 53.632 102.352 59.776C99.7279 65.856 98.4159 73.28 98.4159 82.048C98.4159 86.144 98.8319 89.664 99.6639 92.608C100.496 95.552 101.52 97.76 102.736 99.232C103.952 100.704 105.104 101.44 106.192 101.44C107.024 101.44 107.696 101.024 108.208 100.192C108.784 99.36 109.232 98.016 109.552 96.16L112.144 81.76Z" fill="white"/>
<path d="M186.098 112.48C182.322 112.48 179.09 111.552 176.402 109.696C173.778 107.776 171.794 105.28 170.45 102.208C169.106 99.136 168.434 95.84 168.434 92.32C168.434 87.456 169.33 83.136 171.122 79.36C172.978 75.52 175.474 72.544 178.61 70.432C181.746 68.256 185.266 67.168 189.17 67.168C192.946 67.168 196.178 68.128 198.866 70.048C201.554 71.904 203.57 74.368 204.914 77.44C206.258 80.512 206.93 83.808 206.93 87.328C206.93 92.192 206.002 96.544 204.146 100.384C202.29 104.16 199.762 107.136 196.562 109.312C193.426 111.424 189.938 112.48 186.098 112.48ZM187.154 102.112C189.33 102.112 191.154 100.928 192.626 98.56C194.162 96.192 194.93 92.736 194.93 88.192C194.93 84.672 194.29 82.016 193.01 80.224C191.73 78.432 190.194 77.536 188.402 77.536C186.098 77.536 184.178 78.72 182.642 81.088C181.17 83.392 180.434 86.848 180.434 91.456C180.434 95.104 181.074 97.792 182.354 99.52C183.634 101.248 185.234 102.112 187.154 102.112Z" fill="white"/>
<path d="M230.761 114.592C227.433 114.592 224.873 113.824 223.081 112.288C221.353 110.752 220.489 109.024 220.489 107.104C220.489 105.44 221.097 104 222.313 102.784C223.529 101.568 225.321 100.96 227.689 100.96C228.521 100.96 229.481 101.056 230.569 101.248C231.721 101.376 232.585 101.472 233.161 101.536C233.097 99.872 232.713 98.304 232.009 96.832C231.369 95.36 230.537 93.952 229.513 92.608C228.489 91.2 227.529 89.984 226.633 88.96C224.649 92.736 222.665 95.872 220.681 98.368C218.761 100.864 216.649 103.232 214.345 105.472C213.193 106.624 211.977 107.2 210.697 107.2C209.673 107.2 208.841 106.848 208.201 106.144C207.561 105.376 207.241 104.448 207.241 103.36C207.241 102.08 207.689 100.896 208.585 99.808L209.833 98.272C213.353 93.92 216.009 90.336 217.801 87.52C218.889 85.664 220.169 83.2 221.641 80.128C223.113 76.992 224.553 73.76 225.961 70.432C227.177 67.616 229.705 66.208 233.545 66.208C235.337 66.208 236.585 66.368 237.289 66.688C237.993 67.008 238.345 67.52 238.345 68.224C238.345 68.608 238.217 69.216 237.961 70.048C237.705 70.88 237.353 71.712 236.905 72.544C235.753 74.848 235.177 76.8 235.177 78.4C235.177 79.36 235.497 80.416 236.137 81.568C236.841 82.72 237.897 84.16 239.305 85.888C241.353 88.576 242.889 90.88 243.913 92.8C245.001 94.656 245.545 96.704 245.545 98.944C245.545 99.584 245.481 100.48 245.353 101.632C248.489 100.416 252.169 97.184 256.393 91.936C257.161 91.04 258.025 90.592 258.985 90.592C259.817 90.592 260.457 90.976 260.905 91.744C261.417 92.512 261.673 93.568 261.673 94.912C261.673 97.344 261.065 99.328 259.849 100.864C256.649 104.832 253.577 107.552 250.633 109.024C247.753 110.432 244.169 111.2 239.881 111.328C237.321 113.504 234.281 114.592 230.761 114.592Z" fill="white"/>
<path d="M288.242 93.472C289.074 93.472 289.714 93.856 290.162 94.624C290.674 95.392 290.93 96.448 290.93 97.792C290.93 100.096 290.386 102.08 289.298 103.744C287.506 106.496 285.138 108.64 282.194 110.176C279.314 111.712 275.858 112.48 271.826 112.48C265.682 112.48 260.914 110.656 257.522 107.008C254.13 103.296 252.434 98.304 252.434 92.032C252.434 87.616 253.362 83.52 255.218 79.744C257.074 75.904 259.634 72.864 262.898 70.624C266.226 68.384 269.97 67.264 274.13 67.264C277.842 67.264 280.818 68.384 283.058 70.624C285.298 72.8 286.418 75.776 286.418 79.552C286.418 83.968 284.818 87.776 281.618 90.976C278.482 94.112 273.106 96.608 265.49 98.464C267.026 101.408 269.618 102.88 273.266 102.88C275.89 102.88 278.034 102.272 279.698 101.056C281.426 99.84 283.41 97.792 285.65 94.912C286.418 93.952 287.282 93.472 288.242 93.472ZM272.498 76.672C270.13 76.672 268.114 78.048 266.45 80.8C264.85 83.552 264.05 86.88 264.05 90.784V90.976C267.826 90.08 270.802 88.736 272.978 86.944C275.154 85.152 276.242 83.072 276.242 80.704C276.242 79.488 275.89 78.528 275.186 77.824C274.546 77.056 273.65 76.672 272.498 76.672Z" fill="white"/>
<path d="M299.294 88.384C297.758 88.512 296.51 88.064 295.55 87.04C294.654 86.016 294.206 84.576 294.206 82.72C294.206 80.992 294.622 79.712 295.454 78.88C296.35 78.048 297.63 77.568 299.294 77.44L318.974 75.52C320.574 75.392 321.79 75.808 322.622 76.768C323.518 77.664 323.966 79.008 323.966 80.8C323.966 84.256 322.302 86.144 318.974 86.464L299.294 88.384Z" fill="white"/>
<path d="M364.871 112.48C359.175 112.48 354.023 111.2 349.415 108.64C344.871 106.08 341.255 102.336 338.567 97.408C335.879 92.416 334.535 86.464 334.535 79.552C334.535 69.824 336.295 61.248 339.815 53.824C343.399 46.4 348.231 40.672 354.311 36.64C360.455 32.608 367.239 30.592 374.663 30.592C380.359 30.592 385.479 31.872 390.023 34.432C394.631 36.992 398.279 40.768 400.967 45.76C403.655 50.688 404.999 56.608 404.999 63.52C404.999 73.248 403.207 81.824 399.623 89.248C396.103 96.672 391.271 102.4 385.127 106.432C379.047 110.464 372.295 112.48 364.871 112.48ZM365.831 101.152C370.823 101.152 375.207 99.616 378.983 96.544C382.823 93.472 385.767 89.216 387.815 83.776C389.863 78.272 390.887 72.064 390.887 65.152C390.887 57.536 389.287 51.776 386.087 47.872C382.887 43.904 378.759 41.92 373.703 41.92C368.775 41.92 364.423 43.456 360.647 46.528C356.871 49.536 353.927 53.792 351.815 59.296C349.703 64.736 348.647 70.944 348.647 77.92C348.647 85.536 350.247 91.328 353.447 95.296C356.647 99.2 360.775 101.152 365.831 101.152Z" fill="white"/>
<path d="M438.158 112.768C429.646 112.768 422.83 111.168 417.71 107.968C412.59 104.704 410.03 99.744 410.03 93.088C410.03 89.568 410.638 86.88 411.854 85.024C413.07 83.168 414.862 82.24 417.23 82.24C418.958 82.24 420.366 82.688 421.454 83.584C422.542 84.48 423.086 85.632 423.086 87.04C423.086 88.32 422.99 89.44 422.798 90.4C422.798 90.656 422.734 91.104 422.606 91.744C422.542 92.384 422.51 93.056 422.51 93.76C422.51 96.64 423.95 98.784 426.83 100.192C429.774 101.6 433.87 102.304 439.118 102.304C444.558 102.304 448.814 101.344 451.886 99.424C454.958 97.44 456.494 94.688 456.494 91.168C456.494 88.992 455.79 87.136 454.382 85.6C452.974 84 451.214 82.688 449.102 81.664C446.99 80.576 444.014 79.264 440.174 77.728C435.246 75.808 431.214 73.984 428.078 72.256C425.006 70.528 422.35 68.192 420.11 65.248C417.934 62.24 416.846 58.528 416.846 54.112C416.846 49.504 418.062 45.408 420.494 41.824C422.99 38.24 426.542 35.456 431.15 33.472C435.822 31.488 441.294 30.496 447.566 30.496C452.238 30.496 456.526 31.2 460.43 32.608C464.334 33.952 467.438 36.032 469.742 38.848C472.11 41.664 473.294 45.12 473.294 49.216C473.294 53.248 472.686 56.288 471.47 58.336C470.254 60.384 468.462 61.408 466.094 61.408C464.43 61.408 463.022 60.896 461.87 59.872C460.782 58.848 460.238 57.632 460.238 56.224C460.238 55.008 460.334 53.888 460.526 52.864C460.718 50.944 460.814 49.728 460.814 49.216C460.814 46.528 459.502 44.48 456.878 43.072C454.254 41.664 450.99 40.96 447.086 40.96C441.582 40.96 437.358 41.984 434.414 44.032C431.534 46.016 430.094 48.832 430.094 52.48C430.094 54.912 430.83 56.992 432.302 58.72C433.838 60.448 435.726 61.888 437.966 63.04C440.206 64.192 443.342 65.568 447.374 67.168C452.238 69.152 456.142 70.944 459.086 72.544C462.03 74.144 464.526 76.32 466.574 79.072C468.686 81.824 469.742 85.216 469.742 89.248C469.742 96.8 466.862 102.624 461.102 106.72C455.406 110.752 447.758 112.768 438.158 112.768Z" fill="white"/>
<path d="M176.848 90.592C177.68 90.592 178.32 90.976 178.768 91.744C179.28 92.512 179.536 93.568 179.536 94.912C179.536 97.408 178.928 99.392 177.712 100.864C174.64 104.576 171.536 107.456 168.4 109.504C165.264 111.488 161.552 112.48 157.264 112.48C153.104 112.48 149.552 111.36 146.608 109.12C143.728 106.88 140.976 103.04 138.352 97.6C136.24 93.248 134.576 90.048 133.36 88C132.144 85.888 130.928 84.384 129.712 83.488C128.56 82.592 127.12 82.048 125.392 81.856C125.136 83.2 124.4 87.424 123.184 94.528C122.672 97.728 122.352 99.68 122.224 100.384C121.584 104.288 120.304 107.296 118.384 109.408C116.464 111.456 113.552 112.48 109.648 112.48C105.36 112.48 101.552 111.232 98.2239 108.736C94.9599 106.176 92.4319 102.656 90.6399 98.176C88.8479 93.632 87.9519 88.48 87.9519 82.72C87.9519 71.968 89.8079 62.688 93.5199 54.88C97.2959 47.072 102.544 41.12 109.264 37.024C116.048 32.864 123.856 30.784 132.688 30.784C138.832 30.784 143.984 31.712 148.144 33.568C152.304 35.424 155.376 37.984 157.36 41.248C159.408 44.512 160.432 48.192 160.432 52.288C160.432 55.872 159.568 59.392 157.84 62.848C156.176 66.24 153.648 69.248 150.256 71.872C146.864 74.496 142.736 76.448 137.872 77.728C140.944 78.56 143.312 79.904 144.976 81.76C146.64 83.616 148.304 86.336 149.968 89.92C151.76 93.76 153.52 96.576 155.248 98.368C157.04 100.16 159.088 101.056 161.392 101.056C163.44 101.056 165.392 100.384 167.248 99.04C169.104 97.632 171.44 95.264 174.256 91.936C175.024 91.04 175.888 90.592 176.848 90.592ZM112.144 81.76C109.968 81.76 108.464 81.248 107.632 80.224C106.864 79.2 106.48 78.048 106.48 76.768C106.48 75.232 106.96 74.016 107.92 73.12C108.944 72.224 110.096 71.776 111.376 71.776H113.776C114.8 65.504 115.76 60.096 116.656 55.552C117.488 51.392 120.176 49.312 124.72 49.312C128.368 49.312 130.192 50.944 130.192 54.208C130.192 54.912 130.16 55.456 130.096 55.84L127.216 71.776C130.672 71.584 133.808 70.752 136.624 69.28C139.504 67.808 141.776 65.76 143.44 63.136C145.168 60.512 146.032 57.536 146.032 54.208C146.032 50.176 144.656 47.008 141.904 44.704C139.152 42.4 135.12 41.248 129.808 41.248C123.536 41.248 118.032 42.816 113.296 45.952C108.624 49.024 104.976 53.632 102.352 59.776C99.7279 65.856 98.4159 73.28 98.4159 82.048C98.4159 86.144 98.8319 89.664 99.6639 92.608C100.496 95.552 101.52 97.76 102.736 99.232C103.952 100.704 105.104 101.44 106.192 101.44C107.024 101.44 107.696 101.024 108.208 100.192C108.784 99.36 109.232 98.016 109.552 96.16L112.144 81.76Z" stroke="#686868" stroke-width="18" mask="url(#path-2-outside-1)"/>
<path d="M176.848 90.592C177.68 90.592 178.32 90.976 178.768 91.744C179.28 92.512 179.536 93.568 179.536 94.912C179.536 97.408 178.928 99.392 177.712 100.864C174.64 104.576 171.536 107.456 168.4 109.504C165.264 111.488 161.552 112.48 157.264 112.48C153.104 112.48 149.552 111.36 146.608 109.12C143.728 106.88 140.976 103.04 138.352 97.6C136.24 93.248 134.576 90.048 133.36 88C132.144 85.888 130.928 84.384 129.712 83.488C128.56 82.592 127.12 82.048 125.392 81.856C125.136 83.2 124.4 87.424 123.184 94.528C122.672 97.728 122.352 99.68 122.224 100.384C121.584 104.288 120.304 107.296 118.384 109.408C116.464 111.456 113.552 112.48 109.648 112.48C105.36 112.48 101.552 111.232 98.2239 108.736C94.9599 106.176 92.4319 102.656 90.6399 98.176C88.8479 93.632 87.9519 88.48 87.9519 82.72C87.9519 71.968 89.8079 62.688 93.5199 54.88C97.2959 47.072 102.544 41.12 109.264 37.024C116.048 32.864 123.856 30.784 132.688 30.784C138.832 30.784 143.984 31.712 148.144 33.568C152.304 35.424 155.376 37.984 157.36 41.248C159.408 44.512 160.432 48.192 160.432 52.288C160.432 55.872 159.568 59.392 157.84 62.848C156.176 66.24 153.648 69.248 150.256 71.872C146.864 74.496 142.736 76.448 137.872 77.728C140.944 78.56 143.312 79.904 144.976 81.76C146.64 83.616 148.304 86.336 149.968 89.92C151.76 93.76 153.52 96.576 155.248 98.368C157.04 100.16 159.088 101.056 161.392 101.056C163.44 101.056 165.392 100.384 167.248 99.04C169.104 97.632 171.44 95.264 174.256 91.936C175.024 91.04 175.888 90.592 176.848 90.592ZM112.144 81.76C109.968 81.76 108.464 81.248 107.632 80.224C106.864 79.2 106.48 78.048 106.48 76.768C106.48 75.232 106.96 74.016 107.92 73.12C108.944 72.224 110.096 71.776 111.376 71.776H113.776C114.8 65.504 115.76 60.096 116.656 55.552C117.488 51.392 120.176 49.312 124.72 49.312C128.368 49.312 130.192 50.944 130.192 54.208C130.192 54.912 130.16 55.456 130.096 55.84L127.216 71.776C130.672 71.584 133.808 70.752 136.624 69.28C139.504 67.808 141.776 65.76 143.44 63.136C145.168 60.512 146.032 57.536 146.032 54.208C146.032 50.176 144.656 47.008 141.904 44.704C139.152 42.4 135.12 41.248 129.808 41.248C123.536 41.248 118.032 42.816 113.296 45.952C108.624 49.024 104.976 53.632 102.352 59.776C99.7279 65.856 98.4159 73.28 98.4159 82.048C98.4159 86.144 98.8319 89.664 99.6639 92.608C100.496 95.552 101.52 97.76 102.736 99.232C103.952 100.704 105.104 101.44 106.192 101.44C107.024 101.44 107.696 101.024 108.208 100.192C108.784 99.36 109.232 98.016 109.552 96.16L112.144 81.76Z" stroke="url(#paint0_linear)" stroke-width="18" mask="url(#path-2-outside-1)"/>
<path d="M176.848 90.592C177.68 90.592 178.32 90.976 178.768 91.744C179.28 92.512 179.536 93.568 179.536 94.912C179.536 97.408 178.928 99.392 177.712 100.864C174.64 104.576 171.536 107.456 168.4 109.504C165.264 111.488 161.552 112.48 157.264 112.48C153.104 112.48 149.552 111.36 146.608 109.12C143.728 106.88 140.976 103.04 138.352 97.6C136.24 93.248 134.576 90.048 133.36 88C132.144 85.888 130.928 84.384 129.712 83.488C128.56 82.592 127.12 82.048 125.392 81.856C125.136 83.2 124.4 87.424 123.184 94.528C122.672 97.728 122.352 99.68 122.224 100.384C121.584 104.288 120.304 107.296 118.384 109.408C116.464 111.456 113.552 112.48 109.648 112.48C105.36 112.48 101.552 111.232 98.2239 108.736C94.9599 106.176 92.4319 102.656 90.6399 98.176C88.8479 93.632 87.9519 88.48 87.9519 82.72C87.9519 71.968 89.8079 62.688 93.5199 54.88C97.2959 47.072 102.544 41.12 109.264 37.024C116.048 32.864 123.856 30.784 132.688 30.784C138.832 30.784 143.984 31.712 148.144 33.568C152.304 35.424 155.376 37.984 157.36 41.248C159.408 44.512 160.432 48.192 160.432 52.288C160.432 55.872 159.568 59.392 157.84 62.848C156.176 66.24 153.648 69.248 150.256 71.872C146.864 74.496 142.736 76.448 137.872 77.728C140.944 78.56 143.312 79.904 144.976 81.76C146.64 83.616 148.304 86.336 149.968 89.92C151.76 93.76 153.52 96.576 155.248 98.368C157.04 100.16 159.088 101.056 161.392 101.056C163.44 101.056 165.392 100.384 167.248 99.04C169.104 97.632 171.44 95.264 174.256 91.936C175.024 91.04 175.888 90.592 176.848 90.592ZM112.144 81.76C109.968 81.76 108.464 81.248 107.632 80.224C106.864 79.2 106.48 78.048 106.48 76.768C106.48 75.232 106.96 74.016 107.92 73.12C108.944 72.224 110.096 71.776 111.376 71.776H113.776C114.8 65.504 115.76 60.096 116.656 55.552C117.488 51.392 120.176 49.312 124.72 49.312C128.368 49.312 130.192 50.944 130.192 54.208C130.192 54.912 130.16 55.456 130.096 55.84L127.216 71.776C130.672 71.584 133.808 70.752 136.624 69.28C139.504 67.808 141.776 65.76 143.44 63.136C145.168 60.512 146.032 57.536 146.032 54.208C146.032 50.176 144.656 47.008 141.904 44.704C139.152 42.4 135.12 41.248 129.808 41.248C123.536 41.248 118.032 42.816 113.296 45.952C108.624 49.024 104.976 53.632 102.352 59.776C99.7279 65.856 98.4159 73.28 98.4159 82.048C98.4159 86.144 98.8319 89.664 99.6639 92.608C100.496 95.552 101.52 97.76 102.736 99.232C103.952 100.704 105.104 101.44 106.192 101.44C107.024 101.44 107.696 101.024 108.208 100.192C108.784 99.36 109.232 98.016 109.552 96.16L112.144 81.76Z" stroke="url(#paint1_linear)" stroke-width="18" mask="url(#path-2-outside-1)"/>
<path d="M186.098 112.48C182.322 112.48 179.09 111.552 176.402 109.696C173.778 107.776 171.794 105.28 170.45 102.208C169.106 99.136 168.434 95.84 168.434 92.32C168.434 87.456 169.33 83.136 171.122 79.36C172.978 75.52 175.474 72.544 178.61 70.432C181.746 68.256 185.266 67.168 189.17 67.168C192.946 67.168 196.178 68.128 198.866 70.048C201.554 71.904 203.57 74.368 204.914 77.44C206.258 80.512 206.93 83.808 206.93 87.328C206.93 92.192 206.002 96.544 204.146 100.384C202.29 104.16 199.762 107.136 196.562 109.312C193.426 111.424 189.938 112.48 186.098 112.48ZM187.154 102.112C189.33 102.112 191.154 100.928 192.626 98.56C194.162 96.192 194.93 92.736 194.93 88.192C194.93 84.672 194.29 82.016 193.01 80.224C191.73 78.432 190.194 77.536 188.402 77.536C186.098 77.536 184.178 78.72 182.642 81.088C181.17 83.392 180.434 86.848 180.434 91.456C180.434 95.104 181.074 97.792 182.354 99.52C183.634 101.248 185.234 102.112 187.154 102.112Z" stroke="#686868" stroke-width="18" mask="url(#path-2-outside-1)"/>
<path d="M186.098 112.48C182.322 112.48 179.09 111.552 176.402 109.696C173.778 107.776 171.794 105.28 170.45 102.208C169.106 99.136 168.434 95.84 168.434 92.32C168.434 87.456 169.33 83.136 171.122 79.36C172.978 75.52 175.474 72.544 178.61 70.432C181.746 68.256 185.266 67.168 189.17 67.168C192.946 67.168 196.178 68.128 198.866 70.048C201.554 71.904 203.57 74.368 204.914 77.44C206.258 80.512 206.93 83.808 206.93 87.328C206.93 92.192 206.002 96.544 204.146 100.384C202.29 104.16 199.762 107.136 196.562 109.312C193.426 111.424 189.938 112.48 186.098 112.48ZM187.154 102.112C189.33 102.112 191.154 100.928 192.626 98.56C194.162 96.192 194.93 92.736 194.93 88.192C194.93 84.672 194.29 82.016 193.01 80.224C191.73 78.432 190.194 77.536 188.402 77.536C186.098 77.536 184.178 78.72 182.642 81.088C181.17 83.392 180.434 86.848 180.434 91.456C180.434 95.104 181.074 97.792 182.354 99.52C183.634 101.248 185.234 102.112 187.154 102.112Z" stroke="url(#paint2_linear)" stroke-width="18" mask="url(#path-2-outside-1)"/>
<path d="M186.098 112.48C182.322 112.48 179.09 111.552 176.402 109.696C173.778 107.776 171.794 105.28 170.45 102.208C169.106 99.136 168.434 95.84 168.434 92.32C168.434 87.456 169.33 83.136 171.122 79.36C172.978 75.52 175.474 72.544 178.61 70.432C181.746 68.256 185.266 67.168 189.17 67.168C192.946 67.168 196.178 68.128 198.866 70.048C201.554 71.904 203.57 74.368 204.914 77.44C206.258 80.512 206.93 83.808 206.93 87.328C206.93 92.192 206.002 96.544 204.146 100.384C202.29 104.16 199.762 107.136 196.562 109.312C193.426 111.424 189.938 112.48 186.098 112.48ZM187.154 102.112C189.33 102.112 191.154 100.928 192.626 98.56C194.162 96.192 194.93 92.736 194.93 88.192C194.93 84.672 194.29 82.016 193.01 80.224C191.73 78.432 190.194 77.536 188.402 77.536C186.098 77.536 184.178 78.72 182.642 81.088C181.17 83.392 180.434 86.848 180.434 91.456C180.434 95.104 181.074 97.792 182.354 99.52C183.634 101.248 185.234 102.112 187.154 102.112Z" stroke="url(#paint3_linear)" stroke-width="18" mask="url(#path-2-outside-1)"/>
<path d="M230.761 114.592C227.433 114.592 224.873 113.824 223.081 112.288C221.353 110.752 220.489 109.024 220.489 107.104C220.489 105.44 221.097 104 222.313 102.784C223.529 101.568 225.321 100.96 227.689 100.96C228.521 100.96 229.481 101.056 230.569 101.248C231.721 101.376 232.585 101.472 233.161 101.536C233.097 99.872 232.713 98.304 232.009 96.832C231.369 95.36 230.537 93.952 229.513 92.608C228.489 91.2 227.529 89.984 226.633 88.96C224.649 92.736 222.665 95.872 220.681 98.368C218.761 100.864 216.649 103.232 214.345 105.472C213.193 106.624 211.977 107.2 210.697 107.2C209.673 107.2 208.841 106.848 208.201 106.144C207.561 105.376 207.241 104.448 207.241 103.36C207.241 102.08 207.689 100.896 208.585 99.808L209.833 98.272C213.353 93.92 216.009 90.336 217.801 87.52C218.889 85.664 220.169 83.2 221.641 80.128C223.113 76.992 224.553 73.76 225.961 70.432C227.177 67.616 229.705 66.208 233.545 66.208C235.337 66.208 236.585 66.368 237.289 66.688C237.993 67.008 238.345 67.52 238.345 68.224C238.345 68.608 238.217 69.216 237.961 70.048C237.705 70.88 237.353 71.712 236.905 72.544C235.753 74.848 235.177 76.8 235.177 78.4C235.177 79.36 235.497 80.416 236.137 81.568C236.841 82.72 237.897 84.16 239.305 85.888C241.353 88.576 242.889 90.88 243.913 92.8C245.001 94.656 245.545 96.704 245.545 98.944C245.545 99.584 245.481 100.48 245.353 101.632C248.489 100.416 252.169 97.184 256.393 91.936C257.161 91.04 258.025 90.592 258.985 90.592C259.817 90.592 260.457 90.976 260.905 91.744C261.417 92.512 261.673 93.568 261.673 94.912C261.673 97.344 261.065 99.328 259.849 100.864C256.649 104.832 253.577 107.552 250.633 109.024C247.753 110.432 244.169 111.2 239.881 111.328C237.321 113.504 234.281 114.592 230.761 114.592Z" stroke="#686868" stroke-width="18" mask="url(#path-2-outside-1)"/>
<path d="M230.761 114.592C227.433 114.592 224.873 113.824 223.081 112.288C221.353 110.752 220.489 109.024 220.489 107.104C220.489 105.44 221.097 104 222.313 102.784C223.529 101.568 225.321 100.96 227.689 100.96C228.521 100.96 229.481 101.056 230.569 101.248C231.721 101.376 232.585 101.472 233.161 101.536C233.097 99.872 232.713 98.304 232.009 96.832C231.369 95.36 230.537 93.952 229.513 92.608C228.489 91.2 227.529 89.984 226.633 88.96C224.649 92.736 222.665 95.872 220.681 98.368C218.761 100.864 216.649 103.232 214.345 105.472C213.193 106.624 211.977 107.2 210.697 107.2C209.673 107.2 208.841 106.848 208.201 106.144C207.561 105.376 207.241 104.448 207.241 103.36C207.241 102.08 207.689 100.896 208.585 99.808L209.833 98.272C213.353 93.92 216.009 90.336 217.801 87.52C218.889 85.664 220.169 83.2 221.641 80.128C223.113 76.992 224.553 73.76 225.961 70.432C227.177 67.616 229.705 66.208 233.545 66.208C235.337 66.208 236.585 66.368 237.289 66.688C237.993 67.008 238.345 67.52 238.345 68.224C238.345 68.608 238.217 69.216 237.961 70.048C237.705 70.88 237.353 71.712 236.905 72.544C235.753 74.848 235.177 76.8 235.177 78.4C235.177 79.36 235.497 80.416 236.137 81.568C236.841 82.72 237.897 84.16 239.305 85.888C241.353 88.576 242.889 90.88 243.913 92.8C245.001 94.656 245.545 96.704 245.545 98.944C245.545 99.584 245.481 100.48 245.353 101.632C248.489 100.416 252.169 97.184 256.393 91.936C257.161 91.04 258.025 90.592 258.985 90.592C259.817 90.592 260.457 90.976 260.905 91.744C261.417 92.512 261.673 93.568 261.673 94.912C261.673 97.344 261.065 99.328 259.849 100.864C256.649 104.832 253.577 107.552 250.633 109.024C247.753 110.432 244.169 111.2 239.881 111.328C237.321 113.504 234.281 114.592 230.761 114.592Z" stroke="url(#paint4_linear)" stroke-width="18" mask="url(#path-2-outside-1)"/>
<path d="M230.761 114.592C227.433 114.592 224.873 113.824 223.081 112.288C221.353 110.752 220.489 109.024 220.489 107.104C220.489 105.44 221.097 104 222.313 102.784C223.529 101.568 225.321 100.96 227.689 100.96C228.521 100.96 229.481 101.056 230.569 101.248C231.721 101.376 232.585 101.472 233.161 101.536C233.097 99.872 232.713 98.304 232.009 96.832C231.369 95.36 230.537 93.952 229.513 92.608C228.489 91.2 227.529 89.984 226.633 88.96C224.649 92.736 222.665 95.872 220.681 98.368C218.761 100.864 216.649 103.232 214.345 105.472C213.193 106.624 211.977 107.2 210.697 107.2C209.673 107.2 208.841 106.848 208.201 106.144C207.561 105.376 207.241 104.448 207.241 103.36C207.241 102.08 207.689 100.896 208.585 99.808L209.833 98.272C213.353 93.92 216.009 90.336 217.801 87.52C218.889 85.664 220.169 83.2 221.641 80.128C223.113 76.992 224.553 73.76 225.961 70.432C227.177 67.616 229.705 66.208 233.545 66.208C235.337 66.208 236.585 66.368 237.289 66.688C237.993 67.008 238.345 67.52 238.345 68.224C238.345 68.608 238.217 69.216 237.961 70.048C237.705 70.88 237.353 71.712 236.905 72.544C235.753 74.848 235.177 76.8 235.177 78.4C235.177 79.36 235.497 80.416 236.137 81.568C236.841 82.72 237.897 84.16 239.305 85.888C241.353 88.576 242.889 90.88 243.913 92.8C245.001 94.656 245.545 96.704 245.545 98.944C245.545 99.584 245.481 100.48 245.353 101.632C248.489 100.416 252.169 97.184 256.393 91.936C257.161 91.04 258.025 90.592 258.985 90.592C259.817 90.592 260.457 90.976 260.905 91.744C261.417 92.512 261.673 93.568 261.673 94.912C261.673 97.344 261.065 99.328 259.849 100.864C256.649 104.832 253.577 107.552 250.633 109.024C247.753 110.432 244.169 111.2 239.881 111.328C237.321 113.504 234.281 114.592 230.761 114.592Z" stroke="url(#paint5_linear)" stroke-width="18" mask="url(#path-2-outside-1)"/>
<path d="M288.242 93.472C289.074 93.472 289.714 93.856 290.162 94.624C290.674 95.392 290.93 96.448 290.93 97.792C290.93 100.096 290.386 102.08 289.298 103.744C287.506 106.496 285.138 108.64 282.194 110.176C279.314 111.712 275.858 112.48 271.826 112.48C265.682 112.48 260.914 110.656 257.522 107.008C254.13 103.296 252.434 98.304 252.434 92.032C252.434 87.616 253.362 83.52 255.218 79.744C257.074 75.904 259.634 72.864 262.898 70.624C266.226 68.384 269.97 67.264 274.13 67.264C277.842 67.264 280.818 68.384 283.058 70.624C285.298 72.8 286.418 75.776 286.418 79.552C286.418 83.968 284.818 87.776 281.618 90.976C278.482 94.112 273.106 96.608 265.49 98.464C267.026 101.408 269.618 102.88 273.266 102.88C275.89 102.88 278.034 102.272 279.698 101.056C281.426 99.84 283.41 97.792 285.65 94.912C286.418 93.952 287.282 93.472 288.242 93.472ZM272.498 76.672C270.13 76.672 268.114 78.048 266.45 80.8C264.85 83.552 264.05 86.88 264.05 90.784V90.976C267.826 90.08 270.802 88.736 272.978 86.944C275.154 85.152 276.242 83.072 276.242 80.704C276.242 79.488 275.89 78.528 275.186 77.824C274.546 77.056 273.65 76.672 272.498 76.672Z" stroke="#686868" stroke-width="18" mask="url(#path-2-outside-1)"/>
<path d="M288.242 93.472C289.074 93.472 289.714 93.856 290.162 94.624C290.674 95.392 290.93 96.448 290.93 97.792C290.93 100.096 290.386 102.08 289.298 103.744C287.506 106.496 285.138 108.64 282.194 110.176C279.314 111.712 275.858 112.48 271.826 112.48C265.682 112.48 260.914 110.656 257.522 107.008C254.13 103.296 252.434 98.304 252.434 92.032C252.434 87.616 253.362 83.52 255.218 79.744C257.074 75.904 259.634 72.864 262.898 70.624C266.226 68.384 269.97 67.264 274.13 67.264C277.842 67.264 280.818 68.384 283.058 70.624C285.298 72.8 286.418 75.776 286.418 79.552C286.418 83.968 284.818 87.776 281.618 90.976C278.482 94.112 273.106 96.608 265.49 98.464C267.026 101.408 269.618 102.88 273.266 102.88C275.89 102.88 278.034 102.272 279.698 101.056C281.426 99.84 283.41 97.792 285.65 94.912C286.418 93.952 287.282 93.472 288.242 93.472ZM272.498 76.672C270.13 76.672 268.114 78.048 266.45 80.8C264.85 83.552 264.05 86.88 264.05 90.784V90.976C267.826 90.08 270.802 88.736 272.978 86.944C275.154 85.152 276.242 83.072 276.242 80.704C276.242 79.488 275.89 78.528 275.186 77.824C274.546 77.056 273.65 76.672 272.498 76.672Z" stroke="url(#paint6_linear)" stroke-width="18" mask="url(#path-2-outside-1)"/>
<path d="M288.242 93.472C289.074 93.472 289.714 93.856 290.162 94.624C290.674 95.392 290.93 96.448 290.93 97.792C290.93 100.096 290.386 102.08 289.298 103.744C287.506 106.496 285.138 108.64 282.194 110.176C279.314 111.712 275.858 112.48 271.826 112.48C265.682 112.48 260.914 110.656 257.522 107.008C254.13 103.296 252.434 98.304 252.434 92.032C252.434 87.616 253.362 83.52 255.218 79.744C257.074 75.904 259.634 72.864 262.898 70.624C266.226 68.384 269.97 67.264 274.13 67.264C277.842 67.264 280.818 68.384 283.058 70.624C285.298 72.8 286.418 75.776 286.418 79.552C286.418 83.968 284.818 87.776 281.618 90.976C278.482 94.112 273.106 96.608 265.49 98.464C267.026 101.408 269.618 102.88 273.266 102.88C275.89 102.88 278.034 102.272 279.698 101.056C281.426 99.84 283.41 97.792 285.65 94.912C286.418 93.952 287.282 93.472 288.242 93.472ZM272.498 76.672C270.13 76.672 268.114 78.048 266.45 80.8C264.85 83.552 264.05 86.88 264.05 90.784V90.976C267.826 90.08 270.802 88.736 272.978 86.944C275.154 85.152 276.242 83.072 276.242 80.704C276.242 79.488 275.89 78.528 275.186 77.824C274.546 77.056 273.65 76.672 272.498 76.672Z" stroke="url(#paint7_linear)" stroke-width="18" mask="url(#path-2-outside-1)"/>
<path d="M299.294 88.384C297.758 88.512 296.51 88.064 295.55 87.04C294.654 86.016 294.206 84.576 294.206 82.72C294.206 80.992 294.622 79.712 295.454 78.88C296.35 78.048 297.63 77.568 299.294 77.44L318.974 75.52C320.574 75.392 321.79 75.808 322.622 76.768C323.518 77.664 323.966 79.008 323.966 80.8C323.966 84.256 322.302 86.144 318.974 86.464L299.294 88.384Z" stroke="#686868" stroke-width="18" mask="url(#path-2-outside-1)"/>
<path d="M299.294 88.384C297.758 88.512 296.51 88.064 295.55 87.04C294.654 86.016 294.206 84.576 294.206 82.72C294.206 80.992 294.622 79.712 295.454 78.88C296.35 78.048 297.63 77.568 299.294 77.44L318.974 75.52C320.574 75.392 321.79 75.808 322.622 76.768C323.518 77.664 323.966 79.008 323.966 80.8C323.966 84.256 322.302 86.144 318.974 86.464L299.294 88.384Z" stroke="url(#paint8_linear)" stroke-width="18" mask="url(#path-2-outside-1)"/>
<path d="M299.294 88.384C297.758 88.512 296.51 88.064 295.55 87.04C294.654 86.016 294.206 84.576 294.206 82.72C294.206 80.992 294.622 79.712 295.454 78.88C296.35 78.048 297.63 77.568 299.294 77.44L318.974 75.52C320.574 75.392 321.79 75.808 322.622 76.768C323.518 77.664 323.966 79.008 323.966 80.8C323.966 84.256 322.302 86.144 318.974 86.464L299.294 88.384Z" stroke="url(#paint9_linear)" stroke-width="18" mask="url(#path-2-outside-1)"/>
<path d="M364.871 112.48C359.175 112.48 354.023 111.2 349.415 108.64C344.871 106.08 341.255 102.336 338.567 97.408C335.879 92.416 334.535 86.464 334.535 79.552C334.535 69.824 336.295 61.248 339.815 53.824C343.399 46.4 348.231 40.672 354.311 36.64C360.455 32.608 367.239 30.592 374.663 30.592C380.359 30.592 385.479 31.872 390.023 34.432C394.631 36.992 398.279 40.768 400.967 45.76C403.655 50.688 404.999 56.608 404.999 63.52C404.999 73.248 403.207 81.824 399.623 89.248C396.103 96.672 391.271 102.4 385.127 106.432C379.047 110.464 372.295 112.48 364.871 112.48ZM365.831 101.152C370.823 101.152 375.207 99.616 378.983 96.544C382.823 93.472 385.767 89.216 387.815 83.776C389.863 78.272 390.887 72.064 390.887 65.152C390.887 57.536 389.287 51.776 386.087 47.872C382.887 43.904 378.759 41.92 373.703 41.92C368.775 41.92 364.423 43.456 360.647 46.528C356.871 49.536 353.927 53.792 351.815 59.296C349.703 64.736 348.647 70.944 348.647 77.92C348.647 85.536 350.247 91.328 353.447 95.296C356.647 99.2 360.775 101.152 365.831 101.152Z" stroke="#686868" stroke-width="18" mask="url(#path-2-outside-1)"/>
<path d="M364.871 112.48C359.175 112.48 354.023 111.2 349.415 108.64C344.871 106.08 341.255 102.336 338.567 97.408C335.879 92.416 334.535 86.464 334.535 79.552C334.535 69.824 336.295 61.248 339.815 53.824C343.399 46.4 348.231 40.672 354.311 36.64C360.455 32.608 367.239 30.592 374.663 30.592C380.359 30.592 385.479 31.872 390.023 34.432C394.631 36.992 398.279 40.768 400.967 45.76C403.655 50.688 404.999 56.608 404.999 63.52C404.999 73.248 403.207 81.824 399.623 89.248C396.103 96.672 391.271 102.4 385.127 106.432C379.047 110.464 372.295 112.48 364.871 112.48ZM365.831 101.152C370.823 101.152 375.207 99.616 378.983 96.544C382.823 93.472 385.767 89.216 387.815 83.776C389.863 78.272 390.887 72.064 390.887 65.152C390.887 57.536 389.287 51.776 386.087 47.872C382.887 43.904 378.759 41.92 373.703 41.92C368.775 41.92 364.423 43.456 360.647 46.528C356.871 49.536 353.927 53.792 351.815 59.296C349.703 64.736 348.647 70.944 348.647 77.92C348.647 85.536 350.247 91.328 353.447 95.296C356.647 99.2 360.775 101.152 365.831 101.152Z" stroke="url(#paint10_linear)" stroke-width="18" mask="url(#path-2-outside-1)"/>
<path d="M364.871 112.48C359.175 112.48 354.023 111.2 349.415 108.64C344.871 106.08 341.255 102.336 338.567 97.408C335.879 92.416 334.535 86.464 334.535 79.552C334.535 69.824 336.295 61.248 339.815 53.824C343.399 46.4 348.231 40.672 354.311 36.64C360.455 32.608 367.239 30.592 374.663 30.592C380.359 30.592 385.479 31.872 390.023 34.432C394.631 36.992 398.279 40.768 400.967 45.76C403.655 50.688 404.999 56.608 404.999 63.52C404.999 73.248 403.207 81.824 399.623 89.248C396.103 96.672 391.271 102.4 385.127 106.432C379.047 110.464 372.295 112.48 364.871 112.48ZM365.831 101.152C370.823 101.152 375.207 99.616 378.983 96.544C382.823 93.472 385.767 89.216 387.815 83.776C389.863 78.272 390.887 72.064 390.887 65.152C390.887 57.536 389.287 51.776 386.087 47.872C382.887 43.904 378.759 41.92 373.703 41.92C368.775 41.92 364.423 43.456 360.647 46.528C356.871 49.536 353.927 53.792 351.815 59.296C349.703 64.736 348.647 70.944 348.647 77.92C348.647 85.536 350.247 91.328 353.447 95.296C356.647 99.2 360.775 101.152 365.831 101.152Z" stroke="url(#paint11_linear)" stroke-width="18" mask="url(#path-2-outside-1)"/>
<path d="M438.158 112.768C429.646 112.768 422.83 111.168 417.71 107.968C412.59 104.704 410.03 99.744 410.03 93.088C410.03 89.568 410.638 86.88 411.854 85.024C413.07 83.168 414.862 82.24 417.23 82.24C418.958 82.24 420.366 82.688 421.454 83.584C422.542 84.48 423.086 85.632 423.086 87.04C423.086 88.32 422.99 89.44 422.798 90.4C422.798 90.656 422.734 91.104 422.606 91.744C422.542 92.384 422.51 93.056 422.51 93.76C422.51 96.64 423.95 98.784 426.83 100.192C429.774 101.6 433.87 102.304 439.118 102.304C444.558 102.304 448.814 101.344 451.886 99.424C454.958 97.44 456.494 94.688 456.494 91.168C456.494 88.992 455.79 87.136 454.382 85.6C452.974 84 451.214 82.688 449.102 81.664C446.99 80.576 444.014 79.264 440.174 77.728C435.246 75.808 431.214 73.984 428.078 72.256C425.006 70.528 422.35 68.192 420.11 65.248C417.934 62.24 416.846 58.528 416.846 54.112C416.846 49.504 418.062 45.408 420.494 41.824C422.99 38.24 426.542 35.456 431.15 33.472C435.822 31.488 441.294 30.496 447.566 30.496C452.238 30.496 456.526 31.2 460.43 32.608C464.334 33.952 467.438 36.032 469.742 38.848C472.11 41.664 473.294 45.12 473.294 49.216C473.294 53.248 472.686 56.288 471.47 58.336C470.254 60.384 468.462 61.408 466.094 61.408C464.43 61.408 463.022 60.896 461.87 59.872C460.782 58.848 460.238 57.632 460.238 56.224C460.238 55.008 460.334 53.888 460.526 52.864C460.718 50.944 460.814 49.728 460.814 49.216C460.814 46.528 459.502 44.48 456.878 43.072C454.254 41.664 450.99 40.96 447.086 40.96C441.582 40.96 437.358 41.984 434.414 44.032C431.534 46.016 430.094 48.832 430.094 52.48C430.094 54.912 430.83 56.992 432.302 58.72C433.838 60.448 435.726 61.888 437.966 63.04C440.206 64.192 443.342 65.568 447.374 67.168C452.238 69.152 456.142 70.944 459.086 72.544C462.03 74.144 464.526 76.32 466.574 79.072C468.686 81.824 469.742 85.216 469.742 89.248C469.742 96.8 466.862 102.624 461.102 106.72C455.406 110.752 447.758 112.768 438.158 112.768Z" stroke="#686868" stroke-width="18" mask="url(#path-2-outside-1)"/>
<path d="M438.158 112.768C429.646 112.768 422.83 111.168 417.71 107.968C412.59 104.704 410.03 99.744 410.03 93.088C410.03 89.568 410.638 86.88 411.854 85.024C413.07 83.168 414.862 82.24 417.23 82.24C418.958 82.24 420.366 82.688 421.454 83.584C422.542 84.48 423.086 85.632 423.086 87.04C423.086 88.32 422.99 89.44 422.798 90.4C422.798 90.656 422.734 91.104 422.606 91.744C422.542 92.384 422.51 93.056 422.51 93.76C422.51 96.64 423.95 98.784 426.83 100.192C429.774 101.6 433.87 102.304 439.118 102.304C444.558 102.304 448.814 101.344 451.886 99.424C454.958 97.44 456.494 94.688 456.494 91.168C456.494 88.992 455.79 87.136 454.382 85.6C452.974 84 451.214 82.688 449.102 81.664C446.99 80.576 444.014 79.264 440.174 77.728C435.246 75.808 431.214 73.984 428.078 72.256C425.006 70.528 422.35 68.192 420.11 65.248C417.934 62.24 416.846 58.528 416.846 54.112C416.846 49.504 418.062 45.408 420.494 41.824C422.99 38.24 426.542 35.456 431.15 33.472C435.822 31.488 441.294 30.496 447.566 30.496C452.238 30.496 456.526 31.2 460.43 32.608C464.334 33.952 467.438 36.032 469.742 38.848C472.11 41.664 473.294 45.12 473.294 49.216C473.294 53.248 472.686 56.288 471.47 58.336C470.254 60.384 468.462 61.408 466.094 61.408C464.43 61.408 463.022 60.896 461.87 59.872C460.782 58.848 460.238 57.632 460.238 56.224C460.238 55.008 460.334 53.888 460.526 52.864C460.718 50.944 460.814 49.728 460.814 49.216C460.814 46.528 459.502 44.48 456.878 43.072C454.254 41.664 450.99 40.96 447.086 40.96C441.582 40.96 437.358 41.984 434.414 44.032C431.534 46.016 430.094 48.832 430.094 52.48C430.094 54.912 430.83 56.992 432.302 58.72C433.838 60.448 435.726 61.888 437.966 63.04C440.206 64.192 443.342 65.568 447.374 67.168C452.238 69.152 456.142 70.944 459.086 72.544C462.03 74.144 464.526 76.32 466.574 79.072C468.686 81.824 469.742 85.216 469.742 89.248C469.742 96.8 466.862 102.624 461.102 106.72C455.406 110.752 447.758 112.768 438.158 112.768Z" stroke="url(#paint12_linear)" stroke-width="18" mask="url(#path-2-outside-1)"/>
<path d="M438.158 112.768C429.646 112.768 422.83 111.168 417.71 107.968C412.59 104.704 410.03 99.744 410.03 93.088C410.03 89.568 410.638 86.88 411.854 85.024C413.07 83.168 414.862 82.24 417.23 82.24C418.958 82.24 420.366 82.688 421.454 83.584C422.542 84.48 423.086 85.632 423.086 87.04C423.086 88.32 422.99 89.44 422.798 90.4C422.798 90.656 422.734 91.104 422.606 91.744C422.542 92.384 422.51 93.056 422.51 93.76C422.51 96.64 423.95 98.784 426.83 100.192C429.774 101.6 433.87 102.304 439.118 102.304C444.558 102.304 448.814 101.344 451.886 99.424C454.958 97.44 456.494 94.688 456.494 91.168C456.494 88.992 455.79 87.136 454.382 85.6C452.974 84 451.214 82.688 449.102 81.664C446.99 80.576 444.014 79.264 440.174 77.728C435.246 75.808 431.214 73.984 428.078 72.256C425.006 70.528 422.35 68.192 420.11 65.248C417.934 62.24 416.846 58.528 416.846 54.112C416.846 49.504 418.062 45.408 420.494 41.824C422.99 38.24 426.542 35.456 431.15 33.472C435.822 31.488 441.294 30.496 447.566 30.496C452.238 30.496 456.526 31.2 460.43 32.608C464.334 33.952 467.438 36.032 469.742 38.848C472.11 41.664 473.294 45.12 473.294 49.216C473.294 53.248 472.686 56.288 471.47 58.336C470.254 60.384 468.462 61.408 466.094 61.408C464.43 61.408 463.022 60.896 461.87 59.872C460.782 58.848 460.238 57.632 460.238 56.224C460.238 55.008 460.334 53.888 460.526 52.864C460.718 50.944 460.814 49.728 460.814 49.216C460.814 46.528 459.502 44.48 456.878 43.072C454.254 41.664 450.99 40.96 447.086 40.96C441.582 40.96 437.358 41.984 434.414 44.032C431.534 46.016 430.094 48.832 430.094 52.48C430.094 54.912 430.83 56.992 432.302 58.72C433.838 60.448 435.726 61.888 437.966 63.04C440.206 64.192 443.342 65.568 447.374 67.168C452.238 69.152 456.142 70.944 459.086 72.544C462.03 74.144 464.526 76.32 466.574 79.072C468.686 81.824 469.742 85.216 469.742 89.248C469.742 96.8 466.862 102.624 461.102 106.72C455.406 110.752 447.758 112.768 438.158 112.768Z" stroke="url(#paint13_linear)" stroke-width="18" mask="url(#path-2-outside-1)"/>
<defs>
<linearGradient id="paint0_linear" x1="280.623" y1="30.496" x2="280.623" y2="114.592" gradientUnits="userSpaceOnUse">
<stop stop-color="#541C1C"/>
<stop offset="0.0001" stop-color="#A67D7D" stop-opacity="0.963542"/>
<stop offset="0.744792" stop-color="white" stop-opacity="0"/>
</linearGradient>
<linearGradient id="paint1_linear" x1="280.623" y1="30.496" x2="280.623" y2="114.592" gradientUnits="userSpaceOnUse">
<stop stop-color="#A46868"/>
<stop offset="1" stop-color="white" stop-opacity="0"/>
</linearGradient>
<linearGradient id="paint2_linear" x1="280.623" y1="30.496" x2="280.623" y2="114.592" gradientUnits="userSpaceOnUse">
<stop stop-color="#541C1C"/>
<stop offset="0.0001" stop-color="#A67D7D" stop-opacity="0.963542"/>
<stop offset="0.744792" stop-color="white" stop-opacity="0"/>
</linearGradient>
<linearGradient id="paint3_linear" x1="280.623" y1="30.496" x2="280.623" y2="114.592" gradientUnits="userSpaceOnUse">
<stop stop-color="#A46868"/>
<stop offset="1" stop-color="white" stop-opacity="0"/>
</linearGradient>
<linearGradient id="paint4_linear" x1="280.623" y1="30.496" x2="280.623" y2="114.592" gradientUnits="userSpaceOnUse">
<stop stop-color="#541C1C"/>
<stop offset="0.0001" stop-color="#A67D7D" stop-opacity="0.963542"/>
<stop offset="0.744792" stop-color="white" stop-opacity="0"/>
</linearGradient>
<linearGradient id="paint5_linear" x1="280.623" y1="30.496" x2="280.623" y2="114.592" gradientUnits="userSpaceOnUse">
<stop stop-color="#A46868"/>
<stop offset="1" stop-color="white" stop-opacity="0"/>
</linearGradient>
<linearGradient id="paint6_linear" x1="280.623" y1="30.496" x2="280.623" y2="114.592" gradientUnits="userSpaceOnUse">
<stop stop-color="#541C1C"/>
<stop offset="0.0001" stop-color="#A67D7D" stop-opacity="0.963542"/>
<stop offset="0.744792" stop-color="white" stop-opacity="0"/>
</linearGradient>
<linearGradient id="paint7_linear" x1="280.623" y1="30.496" x2="280.623" y2="114.592" gradientUnits="userSpaceOnUse">
<stop stop-color="#A46868"/>
<stop offset="1" stop-color="white" stop-opacity="0"/>
</linearGradient>
<linearGradient id="paint8_linear" x1="280.623" y1="30.496" x2="280.623" y2="114.592" gradientUnits="userSpaceOnUse">
<stop stop-color="#541C1C"/>
<stop offset="0.0001" stop-color="#A67D7D" stop-opacity="0.963542"/>
<stop offset="0.744792" stop-color="white" stop-opacity="0"/>
</linearGradient>
<linearGradient id="paint9_linear" x1="280.623" y1="30.496" x2="280.623" y2="114.592" gradientUnits="userSpaceOnUse">
<stop stop-color="#A46868"/>
<stop offset="1" stop-color="white" stop-opacity="0"/>
</linearGradient>
<linearGradient id="paint10_linear" x1="280.623" y1="30.496" x2="280.623" y2="114.592" gradientUnits="userSpaceOnUse">
<stop stop-color="#541C1C"/>
<stop offset="0.0001" stop-color="#A67D7D" stop-opacity="0.963542"/>
<stop offset="0.744792" stop-color="white" stop-opacity="0"/>
</linearGradient>
<linearGradient id="paint11_linear" x1="280.623" y1="30.496" x2="280.623" y2="114.592" gradientUnits="userSpaceOnUse">
<stop stop-color="#A46868"/>
<stop offset="1" stop-color="white" stop-opacity="0"/>
</linearGradient>
<linearGradient id="paint12_linear" x1="280.623" y1="30.496" x2="280.623" y2="114.592" gradientUnits="userSpaceOnUse">
<stop stop-color="#541C1C"/>
<stop offset="0.0001" stop-color="#A67D7D" stop-opacity="0.963542"/>
<stop offset="0.744792" stop-color="white" stop-opacity="0"/>
</linearGradient>
<linearGradient id="paint13_linear" x1="280.623" y1="30.496" x2="280.623" y2="114.592" gradientUnits="userSpaceOnUse">
<stop stop-color="#A46868"/>
<stop offset="1" stop-color="white" stop-opacity="0"/>
</linearGradient>
</defs>
</svg>
